# xmcd CD database file
#
# Track frame offsets:
#	150
#	14677
#	30172
#	46310
#	56697
#	73505
#	86655
#	102212
#	117487
#	131815
#	143345
#	156265
#	165905
#	194645
#
# Disc length: 4440 seconds
#
# Revision: 0
# Processed by: cddbd v1.5.1PL0 Copyright (c) Steve Scherf et al.
# Submitted via: CDex 1.51
#
DISCID=ba11560e
DTITLE=Dead Ringer Band - home fires
DYEAR=2003
DGENRE=Country
TTITLE0=Home Fires
TTITLE1=More About Love
TTITLE2=Always Be Me
TTITLE3=Australian Son
TTITLE4=Honky Tonk From Hell
TTITLE5=I'd Go Home If I Had One
TTITLE6=Why
TTITLE7=Family Man
TTITLE8=Burning Flame
TTITLE9=Just Wanted To See You So Bad
TTITLE10=Sin City
TTITLE11=Guitar Talk
TTITLE12=Gypsy Bound
TTITLE13=DATA
EXTD=YEAR: 2003
EXTT0=
EXTT1=
EXTT2=
EXTT3=
EXTT4=
EXTT5=
EXTT6=
EXTT7=
EXTT8=
EXTT9=
EXTT10=
EXTT11=
EXTT12=
EXTT13=
PLAYORDER=
